<?xml version="1.0" encoding="UTF-8" ?>
<svg xmlns="http://www.w3.org/2000/svg" width="512" height="512" viewBox="0 0 500 500">
	<g transform="matrix(1.02 0 0 1.02 250 250)">
		<g style="" vector-effect="non-scaling-stroke">
			<g transform="matrix(0.69 0 0 0.68 117.31 -33.1)">
				<path style="stroke: none; stroke-width: 1; stroke-dasharray: none; stroke-linecap: butt; stroke-dashoffset: 0; stroke-linejoin: miter; stroke-miterlimit: 4; fill: rgb(134,154,164); fill-rule: evenodd; opacity: 1;" vector-effect="non-scaling-stroke" transform=" translate(-808.96, -256.2)" d="M 706.097 7.73119 C 719.445 32.2159 730.366 57.3665 738.939 82.9214 C 784.767 95.1317 825.69 125.402 850.18 170.318 C 897.553 257.223 865.496 366.12 778.597 413.494 C 758.611 424.384 737.466 431.078 716.174 433.871 C 703.067 460.94 687.304 486.825 669.02 511.089 C 718.033 515.712 768.894 506.273 815.365 480.943 C 939.511 413.265 985.306 257.697 917.628 133.551 C 872.754 51.243 789.258 3.37211 701.891 0.181032 C 703.318 2.67677 704.714 5.19311 706.097 7.73119 Z" stroke-linecap="round" />
			</g>
			<g transform="matrix(0.69 0 0 0.68 -194.98 -33.15)">
				<path style="stroke: none; stroke-width: 1; stroke-dasharray: none; stroke-linecap: butt; stroke-dashoffset: 0; stroke-linejoin: miter; stroke-miterlimit: 4; fill: rgb(196,31,72); fill-rule: evenodd; opacity: 1;" vector-effect="non-scaling-stroke" transform=" translate(-355.56, -256.11)" d="M 316.399 0.0496277 L 394.722 0.0496277 L 394.722 512.18 L 316.399 512.18 L 316.399 0.0496277 Z" stroke-linecap="round" />
			</g>
			<g transform="matrix(0.69 0 0 0.68 -48.02 -33.69)">
				<path style="stroke: none; stroke-width: 1; stroke-dasharray: none; stroke-linecap: butt; stroke-dashoffset: 0; stroke-linejoin: miter; stroke-miterlimit: 4; fill: rgb(196,31,72); fill-rule: evenodd; opacity: 1;" vector-effect="non-scaling-stroke" transform=" translate(-568.92, -255.33)" d="M 570.236 31.2868 C 446.088 98.9649 400.294 254.531 467.968 378.679 C 507.443 451.081 576.801 496.833 652.394 508.976 C 668.255 485.637 681.908 460.991 693.228 435.385 C 629.637 435.474 567.991 401.653 535.42 341.907 C 488.043 255.007 520.104 146.109 607.003 98.7356 C 636.912 82.4335 669.422 75.5364 701.14 77.0434 C 694.077 59.0735 685.822 41.3447 676.34 23.9528 C 672.207 16.3635 667.89 8.94042 663.4 1.67926 C 631.637 5.33756 600.03 15.0434 570.236 31.2868 Z" stroke-linecap="round" />
			</g>
			<g transform="matrix(0.69 0 0 0.68 186.95 151.48)">
				<path style="stroke: none; stroke-width: 1; stroke-dasharray: none; stroke-linecap: butt; stroke-dashoffset: 0; stroke-linejoin: miter; stroke-miterlimit: 4; fill: rgb(196,31,72); fill-rule: evenodd; opacity: 1;" vector-effect="non-scaling-stroke" transform=" translate(-910.04, -525.8)" d="M 846.884 478.265 C 866.289 483.965 902.42 430.255 890.625 421.826 C 1001.1 503.225 1012.02 584.421 853.705 629.778 C 853.306 627.869 852.708 626.006 851.905 624.223 C 941.428 575.614 919.808 529.921 846.884 478.265 Z" stroke-linecap="round" />
			</g>
			<g transform="matrix(0.69 0 0 0.68 104.8 47.11)">
				<path style="stroke: none; stroke-width: 1; stroke-dasharray: none; stroke-linecap: butt; stroke-dashoffset: 0; stroke-linejoin: miter; stroke-miterlimit: 4; fill: rgb(35,31,32); fill-rule: evenodd; opacity: 1;" vector-effect="non-scaling-stroke" transform=" translate(-790.79, -373.36)" d="M 695.792 284.08 L 701.866 275.469 L 707.659 272.387 C 715.421 270.282 721.317 277.065 727.255 281.97 C 748.84 295.692 774.149 305.628 798.163 314.184 C 812.431 319.268 817.371 321.951 825.061 335.507 C 839.446 360.87 859.402 390.163 880.716 410.001 C 893.58 422.645 881.462 442.16 873.288 453.046 C 865.496 463.423 849.886 482.789 834.947 471.109 L 834.786 470.982 L 834.628 470.846 C 809.817 449.587 780.532 433.408 750.64 419.038 C 738.857 413.401 744.015 401.912 742.504 393.151 C 736.918 360.828 721.987 330.38 704.26 303.052 C 700.644 298.676 696.356 296.299 695.381 289.805 C 695.083 287.815 695.254 285.893 695.792 284.08 Z" stroke-linecap="round" />
			</g>
			<g transform="matrix(0.69 0 0 0.68 105.99 42.12)">
				<path style="stroke: none; stroke-width: 1; stroke-dasharray: none; stroke-linecap: butt; stroke-dashoffset: 0; stroke-linejoin: miter; stroke-miterlimit: 4; fill: rgb(255,255,255); fill-rule: evenodd; opacity: 1;" vector-effect="non-scaling-stroke" transform=" translate(-792.53, -366.08)" d="M 780.778 346.406 C 757.621 324.747 734.283 303.242 710.897 281.809 C 710.825 281.877 710.753 281.992 710.663 282.072 C 706.081 287.309 711.903 290.03 716.029 295.182 C 735.548 325.19 749.354 355.497 754.676 386.276 C 756.005 394.004 752.588 402.417 757.608 404.815 C 789.046 419.928 824.099 435.428 842.688 451.361 C 853.664 459.938 884.96 422.144 873.64 411.016 C 848.702 387.803 831.415 359.839 818.084 336.338 C 811.803 325.261 808.739 323.95 796.796 319.689 C 770.681 310.386 745.984 300.207 725.803 287.297 C 720.438 282.943 716.848 277.111 712.217 280.603 C 735.688 302.135 759.145 323.75 782.404 345.515 C 784.708 345.01 788.553 346.054 792.318 348.405 C 797.406 351.588 800.412 355.96 799.032 358.153 C 797.649 360.344 792.415 359.551 787.327 356.372 C 782.238 353.192 779.233 348.817 780.612 346.622 C 780.659 346.546 780.719 346.473 780.778 346.406 Z" stroke-linecap="round" />
			</g>
		</g>
	</g>
</svg>