<?xml version="1.0" standalone="no"?>
<svg version="1.0" xmlns="http://www.w3.org/2000/svg"
 width="700.000000pt" height="700.000000pt" viewBox="0 0 700.000000 700.000000"
 preserveAspectRatio="xMidYMid meet">
<g transform="translate(0.000000,700.000000) scale(0.100000,-0.100000)"
fill="#000000" stroke="none">
<path d="M332 3973 l3 -2487 378 0 c209 -1 381 3 384 7 2 4 5 1122 5 2485 l0
2477 -386 3 -386 2 2 -2487z"/>
<path d="M4143 6417 c91 -154 214 -417 289 -616 21 -58 43 -115 47 -126 6 -15
37 -29 114 -53 128 -40 312 -130 426 -207 596 -404 881 -1092 741 -1788 -43
-213 -162 -492 -270 -634 l-17 -22 -33 52 c-19 29 -58 93 -88 142 -95 158
-122 178 -337 257 -341 124 -586 241 -685 327 -72 63 -129 76 -185 41 -30 -19
-74 -74 -88 -112 -10 -29 13 -88 52 -132 99 -109 262 -413 335 -624 20 -57 38
-113 41 -125 2 -12 11 -51 20 -87 9 -36 18 -109 19 -163 4 -112 14 -130 96
-172 l45 -23 -40 -17 c-51 -21 -244 -71 -312 -80 l-52 -7 -46 -89 c-43 -85
-93 -175 -115 -209 -5 -8 -17 -28 -26 -45 -20 -35 -189 -288 -240 -358 -19
-26 -31 -48 -27 -48 42 -7 81 -9 228 -9 94 -1 186 1 205 4 19 3 58 8 85 10
329 33 700 158 1003 338 l82 49 36 -22 c47 -29 115 -29 170 -1 123 63 300 307
320 441 4 25 16 54 27 65 18 20 66 80 129 165 56 75 170 273 227 392 87 185
167 432 195 609 3 19 8 44 10 56 6 27 15 104 21 174 8 85 8 327 0 410 -4 41
-9 86 -10 100 -15 157 -85 424 -161 615 -61 154 -230 453 -317 561 -236 292
-446 481 -717 642 -249 148 -498 244 -805 312 -67 14 -255 39 -338 44 l-78 5
24 -42z"/>
<path d="M3575 6418 c-583 -105 -1142 -435 -1511 -892 -267 -330 -474 -797
-520 -1171 -4 -27 -8 -53 -10 -56 -17 -30 -25 -422 -11 -564 53 -552 310
-1099 702 -1490 136 -137 188 -182 308 -268 303 -218 623 -360 986 -437 52
-11 100 -20 107 -20 27 0 227 331 348 578 62 124 64 132 43 133 -86 3 -228 17
-272 25 -11 3 -36 7 -55 10 -81 14 -278 77 -381 123 -378 169 -674 450 -856
816 -91 181 -134 317 -168 535 -13 81 -14 414 -2 466 3 12 8 37 11 55 23 145
78 315 151 465 164 338 424 604 767 787 100 53 270 119 367 143 9 2 34 8 56
14 22 5 60 12 85 16 25 3 47 8 50 9 10 6 195 19 268 18 39 0 72 4 72 8 0 21
-109 258 -182 399 -45 85 -86 165 -92 177 -6 13 -14 23 -18 23 -5 0 -8 4 -8
10 0 5 -14 32 -31 60 -36 58 -38 58 -204 28z"/>
<path d="M5994 2277 c-1 -84 -83 -230 -195 -348 -80 -83 -150 -126 -211 -131
-16 -1 -28 -3 -28 -5 0 -1 35 -28 78 -59 120 -89 179 -139 288 -248 394 -392
322 -714 -233 -1050 -73 -45 -88 -58 -85 -77 1 -12 4 -25 7 -27 6 -6 181 49
320 100 449 166 737 390 825 641 33 94 38 230 11 336 -64 256 -277 529 -634
814 -70 56 -131 103 -135 104 -4 2 -7 -21 -8 -50z"/>
</g>
</svg>
